<svg aria-hidden="true" style="position: absolute; width: 0; height: 0; overflow: hidden;" version="1.1" xmlns="http://www.w3.org/2000/svg" xmlns:xlink="http://www.w3.org/1999/xlink">
    <defs>
        <symbol id="icon-close-modal" viewBox="0 0 24 24">
		    <path id="Vector" d="M18 6L6 18"  stroke-opacity="1.000000" stroke-width="1.800000" stroke-linejoin="round" stroke-linecap="round"/>
		    <path id="Vector" d="M6 6L18 18"  stroke-opacity="1.000000" stroke-width="1.800000" stroke-linejoin="round" stroke-linecap="round"/>
        </symbol>
        <symbol id="icon-like-car" viewBox="0 0 17.1774 15.1739">	
	        <path id="Vector" d="M13.88 1.06418C13.3794 0.85675 12.8428 0.75 12.301 0.75C11.7592 0.75 11.2225 0.85675 10.7219 1.06418C10.2213 1.27161 9.76648 1.57562 9.38342 1.95886L8.5885 2.75388L7.79346 1.95886C7.01965 1.18509 5.97021 0.750397 4.87598 0.750397C3.78174 0.750397 2.73218 1.18509 1.9585 1.95886C1.18469 2.73264 0.75 3.7821 0.75 4.87637C0.75 5.97064 1.18469 7.02011 1.9585 7.79385L2.75342 8.58887L8.5885 14.4239L14.4235 8.58887L15.2185 7.79385C15.6017 7.4108 15.9058 6.95599 16.1132 6.45538C16.3206 5.9548 16.4274 5.41824 16.4274 4.87637C16.4274 4.3345 16.3206 3.79794 16.1132 3.29736C15.9058 2.79675 15.6017 2.34195 15.2185 1.95886C14.8354 1.57562 14.3806 1.27161 13.88 1.06418Z" stroke-opacity="0.800000" stroke-width="1.500000" stroke-linejoin="round"/>
        </symbol>
        <symbol id="icon-chevron-down" viewBox="0 0 20 20">	
	        <path id="Vector" d="M1.00403 1.00409L6.00403 6.00409L11.004 1.00409" stroke-opacity="1.000000" stroke-width="2.000000" stroke-linejoin="round" stroke-linecap="round"/>
        </symbol>
        <symbol id="icon-close" viewBox="0 0 32 32">
            <path fill="none" stroke-linejoin="round" stroke-linecap="round" stroke-miterlimit="4" stroke-width="2.6667" d="M24 8l-16 16"></path>
            <path fill="none" stroke-linejoin="round" stroke-linecap="round" stroke-miterlimit="4" stroke-width="2.6667" d="M8 8l16 16"></path>
        </symbol>
        <symbol id="icon-logo" viewBox="0 0 200.1 126.2">
            <path class="st0" d="M100,126.2c2.1,0,4.1-0.5,6-1.6l21.9-12.6c4.4-2.5,9.5-3.6,14.6-3c26.6,3.1,45.2,8.1,50.7,9.7c1.1,0.3,2.4-0.1,3.1-1c0.9-1.1,2-2.9,2.9-5.5c0.8-2.5,0.9-4.6,0.8-6.1c-0.1-1.2-0.9-2.3-2.1-2.6c-8.6-2.5-46.7-12.8-97.9-12.8S10.7,101,2.1,103.5c-1.2,0.3-2,1.4-2.1,2.6c-0.1,1.4,0,3.5,0.8,6.1s2,4.4,2.9,5.5c0.7,0.9,2,1.3,3.1,1c5.5-1.6,24.2-6.6,50.7-9.7c5.1-0.6,10.2,0.5,14.6,3L94,124.6C95.9,125.7,97.9,126.2,100,126.2z"/>
            <path class="st0" d="M63.5,55.3c1.2,2.1,3.1,3.5,5.3,4.1c2.2,0.6,4.5,0.3,6.6-0.9c2.1-1.2,3.5-3.1,4.1-5.3c0.6-2.2,0.3-4.5-0.9-6.6L58.9,12.5c-0.6-1.1-1.9-1.5-3.1-1.4c-1.6,0.1-3.8,0.9-6.4,2.4s-4.4,3-5.3,4.3c-0.7,1-0.9,2.3-0.3,3.4L63.5,55.3z"/>
            <path class="st0" d="M45.5,79.7c2.1,1.2,4.5,1.4,6.6,0.9s4.1-2,5.3-4.1c1.2-2.1,1.4-4.5,0.9-6.6s-2-4.1-4.1-5.3L20.1,45c-1.1-0.6-2.4-0.4-3.4,0.3c-1.3,0.9-2.8,2.7-4.3,5.3c-1.5,2.6-2.3,4.8-2.4,6.4c-0.1,1.3,0.4,2.5,1.4,3.1L45.5,79.7z"/>
            <path class="st0" d="M108.7,43.2c0,2.4-1,4.6-2.5,6.2c-1.6,1.6-3.7,2.5-6.2,2.5s-4.6-1-6.2-2.5c-1.6-1.6-2.5-3.7-2.5-6.2V3.9c0-1.3,0.8-2.3,2-2.8C94.7,0.4,97,0,100,0s5.3,0.4,6.7,1.1c1.1,0.6,2,1.5,2,2.8V43.2z"/>
            <path class="st0" d="M136.5,55.3c-1.2,2.1-3.1,3.5-5.3,4.1s-4.5,0.3-6.6-0.9c-2.1-1.2-3.5-3.1-4.1-5.3c-0.6-2.2-0.3-4.5,0.9-6.6l19.7-34.1c0.6-1.1,1.9-1.5,3.1-1.4c1.6,0.1,3.8,0.9,6.4,2.4c2.6,1.5,4.4,3,5.3,4.3c0.7,1,0.9,2.3,0.3,3.4L136.5,55.3z"/>
            <path class="st0" d="M154.5,79.7c-2.1,1.2-4.5,1.4-6.6,0.9s-4.1-2-5.3-4.1c-1.2-2.1-1.4-4.5-0.9-6.6s2-4.1,4.1-5.3l34.1-19.7c1.1-0.6,2.4-0.4,3.4,0.3c1.3,0.9,2.8,2.7,4.3,5.3c1.5,2.6,2.3,4.8,2.4,6.4c0.1,1.3-0.4,2.5-1.4,3.1L154.5,79.7z"/>
        </symbol>
    </defs>
</svg>
